<svg xmlns="http://www.w3.org/2000/svg" width="40" height="40" viewBox="0 0 40 40" fill="none">
<path d="M8.541 30.3931C7.97571 29.8335 7.97571 28.9261 8.541 28.3665L28.3297 8.77573C28.895 8.21609 29.8116 8.21609 30.3768 8.77573C30.9421 9.33537 30.9421 10.2427 30.3768 10.8024L10.5881 30.3931C10.0228 30.9528 9.1063 30.9528 8.541 30.3931Z" fill="white"/>
<path d="M8.42397 8.41973C8.98926 7.86009 9.90579 7.86009 10.4711 8.41973L30.2598 28.0105C30.8251 28.5701 30.8251 29.4775 30.2598 30.0371C29.6945 30.5968 28.778 30.5968 28.2127 30.0371L8.42397 10.4464C7.85868 9.88672 7.85868 8.97937 8.42397 8.41973Z" fill="white"/>
<script xmlns=""/></svg>