<svg
  xmlns="http://www.w3.org/2000/svg"
  width="5"
  height="10"
  viewBox="0 0 5 10"
  fill="none"
>
  <path
    d="M0.731143 0.731727C0.546228 0.731727 0.356448 0.804721 0.215328 0.94584C-0.0717764 1.23294 -0.0717764 1.69523 0.215328 1.97747L3.75304 5.51518C4.04015 5.80228 4.50243 5.80228 4.78467 5.51518C5.07178 5.22808 5.07178 4.76579 4.78467 4.48355L1.24696 0.94584C1.10584 0.804721 0.920924 0.731727 0.731143 0.731727Z"
    fill="#13294B"
  />
  <path
    d="M4.26886 4.26947C4.08394 4.26947 3.89416 4.34246 3.75304 4.48358L0.215328 8.02129C-0.0717764 8.3084 -0.0717764 8.77068 0.215328 9.05292C0.502433 9.34003 0.964721 9.34003 1.24696 9.05292L4.78467 5.51518C5.07178 5.22808 5.07178 4.76579 4.78467 4.48355C4.64355 4.34243 4.45377 4.26947 4.26886 4.26947Z"
    fill="#13294B"
  />
  <script xmlns="" />
</svg>
