<svg
  xmlns="http://www.w3.org/2000/svg"
  width="9"
  height="6"
  viewBox="0 0 9 6"
  fill="none"
>
  <path
    d="M8.99941 1.23114C8.99941 1.04623 8.92642 0.856448 8.7853 0.715328C8.4982 0.428224 8.03591 0.428224 7.75367 0.715328L4.21596 4.25304C3.92886 4.54015 3.92886 5.00243 4.21596 5.28467C4.50306 5.57178 4.96535 5.57178 5.24759 5.28467L8.7853 1.74696C8.92642 1.60584 8.99941 1.42092 8.99941 1.23114Z"
    fill="white"
  />
  <path
    d="M5.46167 4.76886C5.46167 4.58394 5.38868 4.39416 5.24756 4.25304L1.70985 0.715328C1.42274 0.428224 0.960457 0.428224 0.678219 0.715328C0.391114 1.00243 0.391114 1.46472 0.678219 1.74696L4.21596 5.28467C4.50306 5.57178 4.96535 5.57178 5.24759 5.28467C5.38871 5.14355 5.46167 4.95377 5.46167 4.76886Z"
    fill="white"
  />
  <script xmlns="" />
</svg>
