<svg
  width="90"
  height="64"
  viewBox="0 0 90 64"
  fill="none"
  xmlns="http://www.w3.org/2000/svg"
>
  <g clip-path="url(#clip0_944_51254)">
    <path
      d="M47.3954 19.5114L47.691 19.343C49.6754 18.2697 50.4143 15.8075 49.3588 13.8083L37.072 -8.94099C35.9954 -10.9402 33.5042 -11.6768 31.5198 -10.6035L31.2242 -10.4352C29.2398 -9.36188 28.4798 -6.87861 29.5564 -4.90042L41.8432 17.8489C42.9198 19.827 45.411 20.5847 47.3954 19.5114Z"
      fill="#FFB81C"
    />
    <path
      d="M58.9189 9.82339L59.2144 9.65504C61.1989 8.58176 61.9378 6.11953 60.8822 4.12029L48.5955 -18.629C47.5188 -20.6282 45.0277 -21.3648 43.0432 -20.2915L42.7477 -20.1231C40.7632 -19.0499 40.0032 -16.5666 41.0799 -14.5884L53.3666 8.16086C54.4433 10.1391 56.9344 10.8967 58.9189 9.82339Z"
      fill="#007DBA"
    />
    <path
      d="M30.4853 17.5084L30.7808 17.3401C32.7653 16.2668 33.5042 13.8046 32.4486 11.8053L20.1619 -10.9439C19.0852 -12.9432 16.5941 -13.6797 14.6096 -12.6064L14.3141 -12.4381C12.3296 -11.3648 11.5696 -8.88154 12.6463 -6.90335L24.933 15.8459C26.0097 17.8241 28.5008 18.5817 30.4853 17.5084Z"
      fill="#E03C31"
    />
    <path
      d="M13.329 14.529L13.6246 14.3606C15.609 13.2873 16.3479 10.8251 15.2924 8.82585L3.00563 -13.9234C1.92896 -15.9227 -0.562165 -16.6592 -2.54662 -15.5859L-2.84218 -15.4176C-4.82663 -14.3443 -5.58664 -11.861 -4.50996 -9.88284L7.77677 12.8664C8.85344 14.8446 11.3446 15.6022 13.329 14.529Z"
      fill="#59BEC9"
    />
  </g>
  <defs>
    <clipPath id="clip0_944_51254">
      <rect width="90" height="64" fill="white" />
    </clipPath>
  </defs>
</svg>
