<svg
  xmlns="http://www.w3.org/2000/svg"
  width="9"
  height="6"
  viewBox="0 0 9 6"
  fill="none"
>
  <path
    d="M0.463477 4.76886C0.463477 4.95377 0.536471 5.14355 0.67759 5.28467C0.964695 5.57178 1.42698 5.57178 1.70922 5.28467L5.24693 1.74696C5.53403 1.45985 5.53403 0.997567 5.24693 0.715328C4.95983 0.428224 4.49754 0.428224 4.2153 0.715328L0.67759 4.25304C0.536471 4.39416 0.463477 4.57908 0.463477 4.76886Z"
    fill="white"
  />
  <path
    d="M4.00122 1.23114C4.00122 1.41606 4.07421 1.60584 4.21533 1.74696L7.75304 5.28467C8.04015 5.57178 8.50243 5.57178 8.78467 5.28467C9.07178 4.99757 9.07178 4.53528 8.78467 4.25304L5.24693 0.715328C4.95983 0.428224 4.49754 0.428224 4.2153 0.715328C4.07418 0.856448 4.00122 1.04623 4.00122 1.23114Z"
    fill="white"
  />
  <script xmlns="" />
</svg>
