<svg
  xmlns="http://www.w3.org/2000/svg"
  width="24"
  height="24"
  viewBox="0 0 24 24"
  fill="none"
>
  <path
    d="M10.0489 2C5.61366 2 2 5.61467 2 10.0511C2 14.4875 5.61366 18.1022 10.0489 18.1022C11.9695 18.1022 13.7291 17.4248 15.1169 16.2976L20.5623 21.7446C20.7733 21.9612 21.0841 22.05 21.3728 21.9723C21.667 21.8945 21.8946 21.6669 21.9723 21.3782C22.05 21.0894 21.9612 20.7785 21.7447 20.5675L16.2992 15.1205C17.4261 13.7324 18.1033 11.9723 18.1033 10.0511C18.0977 5.61467 14.4841 2 10.0489 2ZM10.0489 3.66574C13.5848 3.66574 16.4324 6.51417 16.4324 10.0511C16.4324 11.7724 15.7552 13.3326 14.6506 14.4764C14.5784 14.5264 14.5229 14.5875 14.473 14.6541C13.3295 15.7591 11.7697 16.4365 10.0489 16.4365C6.51292 16.4365 3.66528 13.588 3.66528 10.0511C3.66528 6.51417 6.51292 3.66574 10.0489 3.66574Z"
    fill="white"
  />
  <script xmlns="" />
</svg>
