<svg
  xmlns="http://www.w3.org/2000/svg"
  width="21"
  height="20"
  viewBox="0 0 21 20"
  fill="none"
>
  <g id="Icon: Search">
    <path
      id="search icon"
      d="M8.51371 0C4.07851 0 0.464844 3.61467 0.464844 8.0511C0.464844 12.4875 4.07851 16.1022 8.51371 16.1022C10.4343 16.1022 12.194 15.4248 13.5817 14.2976L19.0272 19.7446C19.2381 19.9612 19.549 20.05 19.8376 19.9723C20.1318 19.8945 20.3594 19.6669 20.4371 19.3782C20.5148 19.0894 20.426 18.7785 20.2095 18.5675L14.7641 13.1205C15.8909 11.7324 16.5681 9.97226 16.5681 8.0511C16.5626 3.61467 12.9489 0 8.51371 0ZM8.51371 1.66574C12.0497 1.66574 14.8973 4.51417 14.8973 8.0511C14.8973 9.77237 14.2201 11.3326 13.1154 12.4764C13.0433 12.5264 12.9878 12.5875 12.9378 12.6541C11.7943 13.7591 10.2345 14.4365 8.51371 14.4365C4.97776 14.4365 2.13013 11.588 2.13013 8.0511C2.13013 4.51417 4.97776 1.66574 8.51371 1.66574Z"
      fill="#13294B"
    />
  </g>
  <script xmlns="" />
</svg>
