<svg xmlns="http://www.w3.org/2000/svg" width="10" height="6" viewBox="0 0 10 6" fill="none">
<path d="M0.537696 4.76886C0.537696 4.95377 0.61069 5.14355 0.751809 5.28467C1.03891 5.57178 1.5012 5.57178 1.78344 5.28467L5.32115 1.74696C5.60825 1.45985 5.60825 0.997567 5.32115 0.715328C5.03404 0.428224 4.57176 0.428224 4.28952 0.715328L0.751809 4.25304C0.61069 4.39416 0.537696 4.57908 0.537696 4.76886Z" fill="#1C8195"/>
<path d="M4.07544 1.23114C4.07544 1.41606 4.14843 1.60584 4.28955 1.74696L7.82726 5.28467C8.11437 5.57178 8.57665 5.57178 8.85889 5.28467C9.14599 4.99757 9.14599 4.53528 8.85889 4.25304L5.32115 0.715328C5.03404 0.428224 4.57176 0.428224 4.28952 0.715328C4.1484 0.856448 4.07544 1.04623 4.07544 1.23114Z" fill="#1C8195"/>
<script xmlns=""/></svg>