<svg
  xmlns="http://www.w3.org/2000/svg"
  width="9"
  height="6"
  viewBox="0 0 9 6"
  fill="none"
>
  <path
    d="M8.53652 1.23114C8.53652 1.04623 8.46353 0.856448 8.32241 0.715328C8.03531 0.428224 7.57302 0.428224 7.29078 0.715328L3.75307 4.25304C3.46596 4.54015 3.46596 5.00243 3.75307 5.28467C4.04017 5.57178 4.50246 5.57178 4.7847 5.28467L8.32241 1.74696C8.46353 1.60584 8.53652 1.42092 8.53652 1.23114Z"
    fill="#13294B"
  />
  <path
    d="M4.99878 4.76886C4.99878 4.58394 4.92579 4.39416 4.78467 4.25304L1.24696 0.715328C0.959853 0.428224 0.497567 0.428224 0.215328 0.715328C-0.0717761 1.00243 -0.0717761 1.46472 0.215328 1.74696L3.75307 5.28467C4.04017 5.57178 4.50246 5.57178 4.7847 5.28467C4.92582 5.14355 4.99878 4.95377 4.99878 4.76886Z"
    fill="#13294B"
  />
  <script xmlns="" />
</svg>
