<svg
  xmlns="http://www.w3.org/2000/svg"
  xmlns:xlink="http://www.w3.org/1999/xlink"
  width="1250"
  zoomAndPan="magnify"
  viewBox="0 0 937.5 187.499995"
  height="250"
  preserveAspectRatio="xMidYMid meet"
  version="1.0"
>
  <defs>
    <g />
    <clipPath id="d8074dc0f1">
      <path
        d="M 39 62 L 53 62 L 53 119 L 39 119 Z M 39 62 "
        clip-rule="nonzero"
      />
    </clipPath>
    <clipPath id="ef9cb1d9b3">
      <path
        d="M 40.304688 118.238281 L 39.882812 62.539062 L 51.84375 62.445312 L 52.265625 118.144531 Z M 40.304688 118.238281 "
        clip-rule="nonzero"
      />
    </clipPath>
    <clipPath id="b4b0bd4b07">
      <path
        d="M 39.96875 73.703125 C 39.921875 67.558594 42.5625 62.558594 45.863281 62.535156 C 49.167969 62.511719 51.882812 67.46875 51.929688 73.613281 L 52.183594 107.023438 C 52.230469 113.167969 49.589844 118.167969 46.285156 118.191406 C 42.980469 118.214844 40.265625 113.257812 40.21875 107.113281 Z M 39.96875 73.703125 "
        clip-rule="nonzero"
      />
    </clipPath>
    <clipPath id="d9763f3b16">
      <path
        d="M 28 75 L 65 75 L 65 87 L 28 87 Z M 28 75 "
        clip-rule="nonzero"
      />
    </clipPath>
    <clipPath id="41d790e7ca">
      <path
        d="M 27.863281 76.863281 L 63.988281 75.71875 L 64.300781 85.652344 L 28.179688 86.796875 Z M 27.863281 76.863281 "
        clip-rule="nonzero"
      />
    </clipPath>
    <clipPath id="d749eb4d74">
      <path
        d="M 57.886719 75.910156 C 61.242188 75.804688 64.035156 77.941406 64.121094 80.6875 C 64.210938 83.429688 61.558594 85.738281 58.199219 85.84375 L 34.257812 86.601562 C 30.902344 86.707031 28.109375 84.570312 28.023438 81.828125 C 27.933594 79.085938 30.585938 76.777344 33.945312 76.667969 Z M 57.886719 75.910156 "
        clip-rule="nonzero"
      />
    </clipPath>
    <clipPath id="fce55f9edd">
      <path
        d="M 31 43 L 136 43 L 136 149 L 31 149 Z M 31 43 "
        clip-rule="nonzero"
      />
    </clipPath>
    <clipPath id="a1965528a4">
      <path
        d="M 19.699219 59.808594 L 119.984375 31.976562 L 147.8125 132.261719 L 47.527344 160.089844 Z M 19.699219 59.808594 "
        clip-rule="nonzero"
      />
    </clipPath>
    <clipPath id="cb96cdf716">
      <path
        d="M 69.839844 45.890625 C 42.148438 53.578125 25.929688 82.257812 33.613281 109.949219 C 41.296875 137.640625 69.976562 153.863281 97.667969 146.175781 C 125.363281 138.492188 141.582031 109.8125 133.898438 82.121094 C 126.214844 54.425781 97.535156 38.207031 69.839844 45.890625 Z M 69.839844 45.890625 "
        clip-rule="nonzero"
      />
    </clipPath>
    <clipPath id="852a51b2f7">
      <path
        d="M 78 105 L 114 105 L 114 127 L 78 127 Z M 78 105 "
        clip-rule="nonzero"
      />
    </clipPath>
    <clipPath id="87754da2a9">
      <path
        d="M 76.585938 111.277344 L 110.433594 102.1875 L 115.515625 121.105469 L 81.667969 130.199219 Z M 76.585938 111.277344 "
        clip-rule="nonzero"
      />
    </clipPath>
    <clipPath id="5026e39f93">
      <path
        d="M 93.5 106.734375 C 84.160156 109.242188 77.722656 115.511719 79.125 120.738281 C 80.53125 125.960938 89.242188 128.164062 98.582031 125.65625 C 107.925781 123.144531 114.359375 116.875 112.957031 111.652344 C 111.554688 106.425781 102.84375 104.226562 93.5 106.734375 Z M 93.5 106.734375 "
        clip-rule="nonzero"
      />
    </clipPath>
    <clipPath id="178b5fe7ad">
      <path
        d="M 85 95 L 105 95 L 105 115 L 85 115 Z M 85 95 "
        clip-rule="nonzero"
      />
    </clipPath>
    <clipPath id="89c9948e05">
      <path
        d="M 85.882812 99.707031 L 101.78125 95.292969 L 106.417969 112 L 90.519531 116.410156 Z M 85.882812 99.707031 "
        clip-rule="nonzero"
      />
    </clipPath>
    <clipPath id="e4c0f71328">
      <path
        d="M 95.710938 114.535156 C 96.589844 114.546875 97.5625 114.449219 98.46875 114.195312 C 99.378906 113.941406 100.21875 113.566406 100.957031 113.101562 C 100.972656 113.089844 100.992188 113.085938 101.003906 113.074219 C 103.769531 111.277344 105.300781 108.132812 104.523438 105.175781 L 101.78125 95.292969 L 85.882812 99.707031 L 88.625 109.582031 C 89.492188 112.539062 92.386719 114.453125 95.710938 114.535156 Z M 95.710938 114.535156 "
        clip-rule="nonzero"
      />
    </clipPath>
    <clipPath id="f17e9cef8a">
      <path
        d="M 61 54 L 92 54 L 92 122 L 61 122 Z M 61 54 "
        clip-rule="nonzero"
      />
    </clipPath>
    <clipPath id="aa2cdf4722">
      <path
        d="M 61.910156 57.480469 L 74.753906 54.03125 L 91.828125 117.601562 L 78.984375 121.050781 Z M 61.910156 57.480469 "
        clip-rule="nonzero"
      />
    </clipPath>
    <clipPath id="f05d0f011b">
      <path
        d="M 54 68 L 100 68 L 100 91 L 54 91 Z M 54 68 "
        clip-rule="nonzero"
      />
    </clipPath>
    <clipPath id="23a9c4036a">
      <path
        d="M 54.460938 79.585938 L 96.609375 68.265625 L 99.554688 79.230469 L 57.40625 90.550781 Z M 54.460938 79.585938 "
        clip-rule="nonzero"
      />
    </clipPath>
    <clipPath id="9b6ccb1793">
      <path
        d="M 100 93 L 131 93 L 131 125 L 100 125 Z M 100 93 "
        clip-rule="nonzero"
      />
    </clipPath>
    <clipPath id="7d587e475d">
      <path
        d="M 100.304688 105.503906 L 117.027344 93.867188 L 130.398438 113.089844 L 113.675781 124.722656 Z M 100.304688 105.503906 "
        clip-rule="nonzero"
      />
    </clipPath>
    <clipPath id="e344437f9f">
      <path
        d="M 56 45 L 78 45 L 78 67 L 56 67 Z M 56 45 "
        clip-rule="nonzero"
      />
    </clipPath>
    <clipPath id="d442efc440">
      <path
        d="M 56.089844 53.578125 L 70.929688 45.898438 L 77.523438 58.640625 L 62.6875 66.320312 Z M 56.089844 53.578125 "
        clip-rule="nonzero"
      />
    </clipPath>
  </defs>
  <g clip-path="url(#d8074dc0f1)">
    <g clip-path="url(#ef9cb1d9b3)">
      <g clip-path="url(#b4b0bd4b07)">
        <path
          fill="#14294b"
          d="M 40.304688 118.238281 L 39.882812 62.585938 L 51.84375 62.492188 L 52.265625 118.144531 Z M 40.304688 118.238281 "
          fill-opacity="1"
          fill-rule="nonzero"
        />
      </g>
    </g>
  </g>
  <g clip-path="url(#d9763f3b16)">
    <g clip-path="url(#41d790e7ca)">
      <g clip-path="url(#d749eb4d74)">
        <path
          fill="#14294b"
          d="M 27.863281 76.863281 L 63.949219 75.71875 L 64.261719 85.652344 L 28.179688 86.796875 Z M 27.863281 76.863281 "
          fill-opacity="1"
          fill-rule="nonzero"
        />
      </g>
    </g>
  </g>
  <g fill="#ffffff" fill-opacity="1">
    <g transform="translate(157.609856, 126.271525)">
      <g>
        <path
          d="M 40.328125 -13.9375 L 44.15625 -3.078125 C 42.5625 -1.765625 40.5625 -0.738281 38.15625 0 C 35.757812 0.738281 33.039062 1.109375 30 1.109375 C 23.675781 1.109375 18.867188 -0.609375 15.578125 -4.046875 C 12.296875 -7.492188 10.65625 -12.503906 10.65625 -19.078125 L 10.65625 -46.859375 L 1.75 -46.859375 L 1.75 -58.515625 L 10.65625 -58.515625 L 10.65625 -69.90625 L 25.328125 -72.296875 L 25.328125 -58.515625 L 41.921875 -58.515625 L 41.921875 -46.859375 L 25.328125 -46.859375 L 25.328125 -20.140625 C 25.328125 -17.242188 25.925781 -15.128906 27.125 -13.796875 C 28.332031 -12.472656 30.085938 -11.8125 32.390625 -11.8125 C 35.003906 -11.8125 37.28125 -12.519531 39.21875 -13.9375 Z M 40.328125 -13.9375 "
        />
      </g>
    </g>
  </g>
  <g fill="#ffffff" fill-opacity="1">
    <g transform="translate(203.022093, 126.271525)">
      <g>
        <path
          d="M 33.96875 1.109375 C 28.25 1.109375 23.222656 -0.0625 18.890625 -2.40625 C 14.566406 -4.757812 11.210938 -8.207031 8.828125 -12.75 C 6.441406 -17.289062 5.25 -22.773438 5.25 -29.203125 C 5.25 -35.628906 6.441406 -41.125 8.828125 -45.6875 C 11.210938 -50.25 14.566406 -53.703125 18.890625 -56.046875 C 23.222656 -58.398438 28.25 -59.578125 33.96875 -59.578125 C 39.695312 -59.578125 44.722656 -58.398438 49.046875 -56.046875 C 53.378906 -53.703125 56.742188 -50.25 59.140625 -45.6875 C 61.546875 -41.125 62.75 -35.628906 62.75 -29.203125 C 62.75 -22.773438 61.546875 -17.289062 59.140625 -12.75 C 56.742188 -8.207031 53.378906 -4.757812 49.046875 -2.40625 C 44.722656 -0.0625 39.695312 1.109375 33.96875 1.109375 Z M 33.96875 -11.34375 C 43.050781 -11.34375 47.59375 -17.296875 47.59375 -29.203125 C 47.59375 -35.390625 46.425781 -39.921875 44.09375 -42.796875 C 41.757812 -45.679688 38.382812 -47.125 33.96875 -47.125 C 24.894531 -47.125 20.359375 -41.148438 20.359375 -29.203125 C 20.359375 -17.296875 24.894531 -11.34375 33.96875 -11.34375 Z M 33.96875 -11.34375 "
        />
      </g>
    </g>
  </g>
  <g fill="#ffffff" fill-opacity="1">
    <g transform="translate(270.954958, 126.271525)">
      <g>
        <path
          d="M 22.796875 1.109375 C 19.046875 1.109375 15.789062 0.421875 13.03125 -0.953125 C 10.28125 -2.328125 8.160156 -4.347656 6.671875 -7.015625 C 5.191406 -9.691406 4.453125 -12.898438 4.453125 -16.640625 C 4.453125 -20.109375 5.191406 -23.015625 6.671875 -25.359375 C 8.160156 -27.710938 10.457031 -29.640625 13.5625 -31.140625 C 16.675781 -32.640625 20.742188 -33.796875 25.765625 -34.609375 C 29.253906 -35.171875 31.910156 -35.785156 33.734375 -36.453125 C 35.554688 -37.128906 36.785156 -37.890625 37.421875 -38.734375 C 38.054688 -39.585938 38.375 -40.671875 38.375 -41.984375 C 38.375 -43.847656 37.71875 -45.273438 36.40625 -46.265625 C 35.101562 -47.253906 32.929688 -47.75 29.890625 -47.75 C 26.640625 -47.75 23.546875 -47.023438 20.609375 -45.578125 C 17.679688 -44.128906 15.140625 -42.222656 12.984375 -39.859375 L 11.921875 -39.859375 L 5.78125 -49.125 C 8.75 -52.414062 12.367188 -54.976562 16.640625 -56.8125 C 20.921875 -58.65625 25.585938 -59.578125 30.640625 -59.578125 C 38.367188 -59.578125 43.960938 -57.929688 47.421875 -54.640625 C 50.890625 -51.359375 52.625 -46.695312 52.625 -40.65625 L 52.625 -15.265625 C 52.625 -12.648438 53.773438 -11.34375 56.078125 -11.34375 C 56.960938 -11.34375 57.828125 -11.5 58.671875 -11.8125 L 59.421875 -11.609375 L 60.46875 -1.375 C 59.65625 -0.84375 58.523438 -0.410156 57.078125 -0.078125 C 55.628906 0.253906 54.039062 0.421875 52.3125 0.421875 C 48.8125 0.421875 46.082031 -0.25 44.125 -1.59375 C 42.164062 -2.9375 40.757812 -5.035156 39.90625 -7.890625 L 38.796875 -8 C 35.929688 -1.925781 30.597656 1.109375 22.796875 1.109375 Z M 27.453125 -9.859375 C 30.847656 -9.859375 33.5625 -11 35.59375 -13.28125 C 37.625 -15.5625 38.640625 -18.734375 38.640625 -22.796875 L 38.640625 -28.734375 L 37.625 -28.9375 C 36.75 -28.226562 35.59375 -27.632812 34.15625 -27.15625 C 32.726562 -26.6875 30.671875 -26.222656 27.984375 -25.765625 C 24.804688 -25.234375 22.519531 -24.320312 21.125 -23.03125 C 19.726562 -21.738281 19.03125 -19.910156 19.03125 -17.546875 C 19.03125 -15.035156 19.769531 -13.125 21.25 -11.8125 C 22.738281 -10.507812 24.804688 -9.859375 27.453125 -9.859375 Z M 27.453125 -9.859375 "
        />
      </g>
    </g>
  </g>
  <g fill="#ffffff" fill-opacity="1">
    <g transform="translate(332.582061, 126.271525)">
      <g>
        <path
          d="M 27.34375 1.109375 C 23.351562 1.109375 19.695312 0.640625 16.375 -0.296875 C 13.050781 -1.234375 10.210938 -2.519531 7.859375 -4.15625 C 5.515625 -5.800781 3.78125 -7.6875 2.65625 -9.8125 L 10.8125 -18.609375 L 11.921875 -18.609375 C 13.867188 -15.992188 16.164062 -14.03125 18.8125 -12.71875 C 21.46875 -11.414062 24.347656 -10.765625 27.453125 -10.765625 C 30.316406 -10.765625 32.472656 -11.273438 33.921875 -12.296875 C 35.367188 -13.316406 36.09375 -14.785156 36.09375 -16.703125 C 36.09375 -18.179688 35.570312 -19.421875 34.53125 -20.421875 C 33.488281 -21.429688 31.800781 -22.222656 29.46875 -22.796875 L 21.734375 -24.640625 C 15.929688 -26.023438 11.695312 -28.140625 9.03125 -30.984375 C 6.363281 -33.828125 5.03125 -37.4375 5.03125 -41.8125 C 5.03125 -45.457031 5.957031 -48.617188 7.8125 -51.296875 C 9.664062 -53.984375 12.28125 -56.035156 15.65625 -57.453125 C 19.03125 -58.867188 22.960938 -59.578125 27.453125 -59.578125 C 32.722656 -59.578125 37.085938 -58.816406 40.546875 -57.296875 C 44.003906 -55.773438 46.707031 -53.742188 48.65625 -51.203125 L 40.8125 -42.71875 L 39.75 -42.71875 C 38.125 -44.550781 36.296875 -45.890625 34.265625 -46.734375 C 32.234375 -47.585938 29.960938 -48.015625 27.453125 -48.015625 C 21.660156 -48.015625 18.765625 -46.210938 18.765625 -42.609375 C 18.765625 -41.085938 19.300781 -39.847656 20.375 -38.890625 C 21.457031 -37.941406 23.359375 -37.171875 26.078125 -36.578125 L 33.28125 -34.984375 C 39.21875 -33.710938 43.554688 -31.671875 46.296875 -28.859375 C 49.035156 -26.046875 50.40625 -22.273438 50.40625 -17.546875 C 50.40625 -13.835938 49.484375 -10.566406 47.640625 -7.734375 C 45.804688 -4.910156 43.15625 -2.726562 39.6875 -1.1875 C 36.226562 0.34375 32.113281 1.109375 27.34375 1.109375 Z M 27.34375 1.109375 "
        />
      </g>
    </g>
  </g>
  <g fill="#ffffff" fill-opacity="1">
    <g transform="translate(386.472658, 126.271525)">
      <g>
        <path
          d="M 40.328125 -13.9375 L 44.15625 -3.078125 C 42.5625 -1.765625 40.5625 -0.738281 38.15625 0 C 35.757812 0.738281 33.039062 1.109375 30 1.109375 C 23.675781 1.109375 18.867188 -0.609375 15.578125 -4.046875 C 12.296875 -7.492188 10.65625 -12.503906 10.65625 -19.078125 L 10.65625 -46.859375 L 1.75 -46.859375 L 1.75 -58.515625 L 10.65625 -58.515625 L 10.65625 -69.90625 L 25.328125 -72.296875 L 25.328125 -58.515625 L 41.921875 -58.515625 L 41.921875 -46.859375 L 25.328125 -46.859375 L 25.328125 -20.140625 C 25.328125 -17.242188 25.925781 -15.128906 27.125 -13.796875 C 28.332031 -12.472656 30.085938 -11.8125 32.390625 -11.8125 C 35.003906 -11.8125 37.28125 -12.519531 39.21875 -13.9375 Z M 40.328125 -13.9375 "
        />
      </g>
    </g>
  </g>
  <g fill="#ffffff" fill-opacity="1">
    <g transform="translate(431.889347, 126.271525)"><g /></g>
  </g>
  <g fill="#ffffff" fill-opacity="1">
    <g transform="translate(458.490204, 126.271525)">
      <g>
        <path
          d="M 13.03125 0 L 13.03125 -51.40625 L 2.859375 -51.40625 L 2.859375 -58.515625 L 13.03125 -58.515625 C 12.394531 -61.054688 12.078125 -63.476562 12.078125 -65.78125 C 12.078125 -69.5625 12.878906 -72.75 14.484375 -75.34375 C 16.097656 -77.9375 18.335938 -79.867188 21.203125 -81.140625 C 24.066406 -82.410156 27.367188 -83.046875 31.109375 -83.046875 C 36.941406 -83.046875 41.410156 -81.796875 44.515625 -79.296875 L 41.1875 -73.1875 L 40.0625 -72.984375 C 37.769531 -74.816406 34.785156 -75.734375 31.109375 -75.734375 C 27.679688 -75.734375 25.09375 -74.847656 23.34375 -73.078125 C 21.59375 -71.316406 20.71875 -68.8125 20.71875 -65.5625 C 20.71875 -63.550781 21.035156 -61.203125 21.671875 -58.515625 L 40.28125 -58.515625 L 40.28125 -51.40625 L 21.671875 -51.40625 L 21.671875 0 Z M 13.03125 0 "
        />
      </g>
    </g>
  </g>
  <g fill="#ffffff" fill-opacity="1">
    <g transform="translate(500.14015, 126.271525)">
      <g>
        <path
          d="M 14.515625 -69.75 C 12.679688 -69.75 11.191406 -70.320312 10.046875 -71.46875 C 8.898438 -72.613281 8.328125 -74.070312 8.328125 -75.84375 C 8.328125 -77.613281 8.898438 -79.070312 10.046875 -80.21875 C 11.191406 -81.363281 12.679688 -81.9375 14.515625 -81.9375 C 16.359375 -81.9375 17.851562 -81.363281 19 -80.21875 C 20.144531 -79.070312 20.71875 -77.613281 20.71875 -75.84375 C 20.71875 -74.070312 20.144531 -72.613281 19 -71.46875 C 17.851562 -70.320312 16.359375 -69.75 14.515625 -69.75 Z M 10.171875 0 L 10.171875 -58.453125 L 18.8125 -58.453125 L 18.8125 0 Z M 10.171875 0 "
        />
      </g>
    </g>
  </g>
  <g fill="#ffffff" fill-opacity="1">
    <g transform="translate(529.125564, 126.271525)">
      <g>
        <path
          d="M 10.171875 0 L 10.171875 -58.453125 L 18.390625 -58.453125 L 18.390625 -49.296875 L 19.5 -49.03125 C 21.445312 -52.457031 23.929688 -55.070312 26.953125 -56.875 C 29.972656 -58.675781 33.65625 -59.578125 38 -59.578125 C 45.03125 -59.578125 50.125 -57.78125 53.28125 -54.1875 C 56.445312 -50.601562 58.03125 -45.082031 58.03125 -37.625 L 58.03125 0 L 49.390625 0 L 49.390625 -37.421875 C 49.390625 -40.953125 48.9375 -43.785156 48.03125 -45.921875 C 47.132812 -48.054688 45.738281 -49.609375 43.84375 -50.578125 C 41.957031 -51.554688 39.476562 -52.046875 36.40625 -52.046875 C 31.144531 -52.046875 26.894531 -50.304688 23.65625 -46.828125 C 20.425781 -43.347656 18.8125 -37.738281 18.8125 -30 L 18.8125 0 Z M 10.171875 0 "
        />
      </g>
    </g>
  </g>
  <g fill="#ffffff" fill-opacity="1">
    <g transform="translate(596.422551, 126.271525)">
      <g>
        <path
          d="M 24.109375 1.109375 C 18.347656 1.109375 13.851562 -0.390625 10.625 -3.390625 C 7.394531 -6.390625 5.78125 -10.679688 5.78125 -16.265625 C 5.78125 -19.734375 6.492188 -22.660156 7.921875 -25.046875 C 9.347656 -27.429688 11.5625 -29.375 14.5625 -30.875 C 17.570312 -32.375 21.5 -33.53125 26.34375 -34.34375 C 30.582031 -35.050781 33.804688 -35.847656 36.015625 -36.734375 C 38.222656 -37.617188 39.707031 -38.609375 40.46875 -39.703125 C 41.226562 -40.796875 41.609375 -42.171875 41.609375 -43.828125 C 41.609375 -46.484375 40.695312 -48.515625 38.875 -49.921875 C 37.050781 -51.335938 34.128906 -52.046875 30.109375 -52.046875 C 26.328125 -52.046875 23.082031 -51.3125 20.375 -49.84375 C 17.675781 -48.375 15.195312 -46.191406 12.9375 -43.296875 L 11.875 -43.296875 L 7.625 -49.296875 C 10.101562 -52.441406 13.25 -54.941406 17.0625 -56.796875 C 20.882812 -58.648438 25.234375 -59.578125 30.109375 -59.578125 C 36.992188 -59.578125 42.070312 -58.066406 45.34375 -55.046875 C 48.613281 -52.023438 50.25 -47.84375 50.25 -42.5 L 50.25 -11.5 C 50.25 -8.25 51.625 -6.625 54.375 -6.625 C 55.289062 -6.625 56.175781 -6.785156 57.03125 -7.109375 L 57.765625 -6.890625 L 58.78125 -0.90625 C 58.144531 -0.476562 57.304688 -0.148438 56.265625 0.078125 C 55.222656 0.304688 54.148438 0.421875 53.046875 0.421875 C 49.835938 0.421875 47.410156 -0.28125 45.765625 -1.6875 C 44.117188 -3.101562 43.066406 -5.191406 42.609375 -7.953125 L 41.5 -8.0625 C 39.84375 -4.976562 37.597656 -2.675781 34.765625 -1.15625 C 31.941406 0.351562 28.390625 1.109375 24.109375 1.109375 Z M 26.03125 -5.78125 C 29.28125 -5.78125 32.097656 -6.53125 34.484375 -8.03125 C 36.867188 -9.53125 38.695312 -11.640625 39.96875 -14.359375 C 41.238281 -17.078125 41.875 -20.222656 41.875 -23.796875 L 41.875 -31.21875 L 40.859375 -31.4375 C 39.554688 -30.507812 37.96875 -29.738281 36.09375 -29.125 C 34.21875 -28.507812 31.601562 -27.953125 28.25 -27.453125 C 24.851562 -26.992188 22.15625 -26.285156 20.15625 -25.328125 C 18.164062 -24.378906 16.742188 -23.171875 15.890625 -21.703125 C 15.046875 -20.234375 14.625 -18.421875 14.625 -16.265625 C 14.625 -12.835938 15.628906 -10.234375 17.640625 -8.453125 C 19.660156 -6.671875 22.457031 -5.78125 26.03125 -5.78125 Z M 26.03125 -5.78125 "
        />
      </g>
    </g>
  </g>
  <g fill="#ffffff" fill-opacity="1">
    <g transform="translate(656.883879, 126.271525)">
      <g>
        <path
          d="M 10.171875 0 L 10.171875 -58.453125 L 18.390625 -58.453125 L 18.390625 -49.296875 L 19.5 -49.03125 C 21.445312 -52.457031 23.929688 -55.070312 26.953125 -56.875 C 29.972656 -58.675781 33.65625 -59.578125 38 -59.578125 C 45.03125 -59.578125 50.125 -57.78125 53.28125 -54.1875 C 56.445312 -50.601562 58.03125 -45.082031 58.03125 -37.625 L 58.03125 0 L 49.390625 0 L 49.390625 -37.421875 C 49.390625 -40.953125 48.9375 -43.785156 48.03125 -45.921875 C 47.132812 -48.054688 45.738281 -49.609375 43.84375 -50.578125 C 41.957031 -51.554688 39.476562 -52.046875 36.40625 -52.046875 C 31.144531 -52.046875 26.894531 -50.304688 23.65625 -46.828125 C 20.425781 -43.347656 18.8125 -37.738281 18.8125 -30 L 18.8125 0 Z M 10.171875 0 "
        />
      </g>
    </g>
  </g>
  <g fill="#ffffff" fill-opacity="1">
    <g transform="translate(724.180866, 126.271525)">
      <g>
        <path
          d="M 33.546875 1.109375 C 28.390625 1.109375 23.757812 -0.0625 19.65625 -2.40625 C 15.5625 -4.757812 12.328125 -8.222656 9.953125 -12.796875 C 7.585938 -17.367188 6.40625 -22.835938 6.40625 -29.203125 C 6.40625 -35.597656 7.585938 -41.082031 9.953125 -45.65625 C 12.328125 -50.238281 15.5625 -53.703125 19.65625 -56.046875 C 23.757812 -58.398438 28.390625 -59.578125 33.546875 -59.578125 C 39.734375 -59.578125 44.65625 -58.410156 48.3125 -56.078125 C 51.96875 -53.742188 54.609375 -50.632812 56.234375 -46.75 L 50.34375 -42.5 L 49.296875 -42.5 C 47.703125 -45.71875 45.660156 -48.078125 43.171875 -49.578125 C 40.679688 -51.078125 37.472656 -51.828125 33.546875 -51.828125 C 29.941406 -51.828125 26.78125 -50.976562 24.0625 -49.28125 C 21.34375 -47.59375 19.226562 -45.050781 17.71875 -41.65625 C 16.21875 -38.269531 15.46875 -34.117188 15.46875 -29.203125 C 15.46875 -24.328125 16.226562 -20.203125 17.75 -16.828125 C 19.269531 -13.453125 21.378906 -10.90625 24.078125 -9.1875 C 26.785156 -7.476562 29.941406 -6.625 33.546875 -6.625 C 37.609375 -6.625 40.972656 -7.539062 43.640625 -9.375 C 46.304688 -11.21875 48.398438 -14.117188 49.921875 -18.078125 L 51.046875 -18.078125 L 56.71875 -14.734375 C 55.195312 -9.828125 52.484375 -5.957031 48.578125 -3.125 C 44.671875 -0.300781 39.660156 1.109375 33.546875 1.109375 Z M 33.546875 1.109375 "
        />
      </g>
    </g>
  </g>
  <g fill="#ffffff" fill-opacity="1">
    <g transform="translate(784.430234, 126.271525)">
      <g>
        <path
          d="M 14.515625 -69.75 C 12.679688 -69.75 11.191406 -70.320312 10.046875 -71.46875 C 8.898438 -72.613281 8.328125 -74.070312 8.328125 -75.84375 C 8.328125 -77.613281 8.898438 -79.070312 10.046875 -80.21875 C 11.191406 -81.363281 12.679688 -81.9375 14.515625 -81.9375 C 16.359375 -81.9375 17.851562 -81.363281 19 -80.21875 C 20.144531 -79.070312 20.71875 -77.613281 20.71875 -75.84375 C 20.71875 -74.070312 20.144531 -72.613281 19 -71.46875 C 17.851562 -70.320312 16.359375 -69.75 14.515625 -69.75 Z M 10.171875 0 L 10.171875 -58.453125 L 18.8125 -58.453125 L 18.8125 0 Z M 10.171875 0 "
        />
      </g>
    </g>
  </g>
  <g fill="#ffffff" fill-opacity="1">
    <g transform="translate(813.415647, 126.271525)">
      <g>
        <path
          d="M 24.109375 1.109375 C 18.347656 1.109375 13.851562 -0.390625 10.625 -3.390625 C 7.394531 -6.390625 5.78125 -10.679688 5.78125 -16.265625 C 5.78125 -19.734375 6.492188 -22.660156 7.921875 -25.046875 C 9.347656 -27.429688 11.5625 -29.375 14.5625 -30.875 C 17.570312 -32.375 21.5 -33.53125 26.34375 -34.34375 C 30.582031 -35.050781 33.804688 -35.847656 36.015625 -36.734375 C 38.222656 -37.617188 39.707031 -38.609375 40.46875 -39.703125 C 41.226562 -40.796875 41.609375 -42.171875 41.609375 -43.828125 C 41.609375 -46.484375 40.695312 -48.515625 38.875 -49.921875 C 37.050781 -51.335938 34.128906 -52.046875 30.109375 -52.046875 C 26.328125 -52.046875 23.082031 -51.3125 20.375 -49.84375 C 17.675781 -48.375 15.195312 -46.191406 12.9375 -43.296875 L 11.875 -43.296875 L 7.625 -49.296875 C 10.101562 -52.441406 13.25 -54.941406 17.0625 -56.796875 C 20.882812 -58.648438 25.234375 -59.578125 30.109375 -59.578125 C 36.992188 -59.578125 42.070312 -58.066406 45.34375 -55.046875 C 48.613281 -52.023438 50.25 -47.84375 50.25 -42.5 L 50.25 -11.5 C 50.25 -8.25 51.625 -6.625 54.375 -6.625 C 55.289062 -6.625 56.175781 -6.785156 57.03125 -7.109375 L 57.765625 -6.890625 L 58.78125 -0.90625 C 58.144531 -0.476562 57.304688 -0.148438 56.265625 0.078125 C 55.222656 0.304688 54.148438 0.421875 53.046875 0.421875 C 49.835938 0.421875 47.410156 -0.28125 45.765625 -1.6875 C 44.117188 -3.101562 43.066406 -5.191406 42.609375 -7.953125 L 41.5 -8.0625 C 39.84375 -4.976562 37.597656 -2.675781 34.765625 -1.15625 C 31.941406 0.351562 28.390625 1.109375 24.109375 1.109375 Z M 26.03125 -5.78125 C 29.28125 -5.78125 32.097656 -6.53125 34.484375 -8.03125 C 36.867188 -9.53125 38.695312 -11.640625 39.96875 -14.359375 C 41.238281 -17.078125 41.875 -20.222656 41.875 -23.796875 L 41.875 -31.21875 L 40.859375 -31.4375 C 39.554688 -30.507812 37.96875 -29.738281 36.09375 -29.125 C 34.21875 -28.507812 31.601562 -27.953125 28.25 -27.453125 C 24.851562 -26.992188 22.15625 -26.285156 20.15625 -25.328125 C 18.164062 -24.378906 16.742188 -23.171875 15.890625 -21.703125 C 15.046875 -20.234375 14.625 -18.421875 14.625 -16.265625 C 14.625 -12.835938 15.628906 -10.234375 17.640625 -8.453125 C 19.660156 -6.671875 22.457031 -5.78125 26.03125 -5.78125 Z M 26.03125 -5.78125 "
        />
      </g>
    </g>
  </g>
  <g fill="#ffffff" fill-opacity="1">
    <g transform="translate(873.876975, 126.271525)">
      <g>
        <path
          d="M 23.265625 1.109375 C 19.128906 1.109375 15.878906 -0.0625 13.515625 -2.40625 C 11.148438 -4.757812 9.96875 -8.269531 9.96875 -12.9375 L 9.96875 -81.9375 L 18.609375 -81.9375 L 18.609375 -13.515625 C 18.609375 -11.078125 19.070312 -9.316406 20 -8.234375 C 20.9375 -7.160156 22.394531 -6.625 24.375 -6.625 C 25.582031 -6.625 26.800781 -6.816406 28.03125 -7.203125 L 28.78125 -7 L 29.78125 -0.21875 C 29.144531 0.207031 28.234375 0.535156 27.046875 0.765625 C 25.867188 0.992188 24.609375 1.109375 23.265625 1.109375 Z M 23.265625 1.109375 "
        />
      </g>
    </g>
  </g>
  <g clip-path="url(#fce55f9edd)">
    <g clip-path="url(#a1965528a4)">
      <g clip-path="url(#cb96cdf716)">
        <path
          fill="#5ce1e6"
          d="M 19.699219 59.808594 L 119.984375 31.976562 L 147.8125 132.261719 L 47.527344 160.089844 Z M 19.699219 59.808594 "
          fill-opacity="1"
          fill-rule="nonzero"
        />
      </g>
    </g>
  </g>
  <g clip-path="url(#852a51b2f7)">
    <g clip-path="url(#87754da2a9)">
      <g clip-path="url(#5026e39f93)">
        <path
          fill="#14294b"
          d="M 76.585938 111.277344 L 110.433594 102.1875 L 115.515625 121.105469 L 81.667969 130.199219 Z M 76.585938 111.277344 "
          fill-opacity="1"
          fill-rule="nonzero"
        />
      </g>
    </g>
  </g>
  <g clip-path="url(#178b5fe7ad)">
    <g clip-path="url(#89c9948e05)">
      <g clip-path="url(#e4c0f71328)">
        <path
          fill="#5ce1e6"
          d="M 85.882812 99.707031 L 101.78125 95.292969 L 106.417969 112 L 90.519531 116.410156 Z M 85.882812 99.707031 "
          fill-opacity="1"
          fill-rule="nonzero"
        />
      </g>
    </g>
  </g>
  <g clip-path="url(#f17e9cef8a)">
    <g clip-path="url(#aa2cdf4722)">
      <path
        fill="#14294b"
        d="M 61.910156 57.480469 L 74.753906 54.03125 L 91.828125 117.597656 L 78.984375 121.046875 Z M 61.910156 57.480469 "
        fill-opacity="1"
        fill-rule="nonzero"
      />
    </g>
  </g>
  <g clip-path="url(#f05d0f011b)">
    <g clip-path="url(#23a9c4036a)">
      <path
        fill="#14294b"
        d="M 54.460938 79.585938 L 96.605469 68.265625 L 99.550781 79.230469 L 57.40625 90.550781 Z M 54.460938 79.585938 "
        fill-opacity="1"
        fill-rule="nonzero"
      />
    </g>
  </g>
  <g clip-path="url(#9b6ccb1793)">
    <g clip-path="url(#7d587e475d)">
      <path
        fill="#5ce1e6"
        d="M 100.304688 105.503906 L 117.027344 93.867188 L 130.390625 113.070312 L 113.667969 124.707031 Z M 100.304688 105.503906 "
        fill-opacity="1"
        fill-rule="nonzero"
      />
    </g>
  </g>
  <g clip-path="url(#e344437f9f)">
    <g clip-path="url(#d442efc440)">
      <path
        fill="#5ce1e6"
        d="M 56.089844 53.578125 L 70.925781 45.898438 L 77.519531 58.640625 L 62.6875 66.320312 Z M 56.089844 53.578125 "
        fill-opacity="1"
        fill-rule="nonzero"
      />
    </g>
  </g>
</svg>
