<svg xmlns="http://www.w3.org/2000/svg" width="10" height="6" viewBox="0 0 10 6" fill="none">
<path d="M0.928321 4.76886C0.928321 4.95377 1.00132 5.14355 1.14243 5.28467C1.42954 5.57178 1.89183 5.57178 2.17406 5.28467L5.71177 1.74696C5.99888 1.45985 5.99888 0.997567 5.71177 0.715328C5.42467 0.428224 4.96238 0.428224 4.68014 0.715328L1.14243 4.25304C1.00132 4.39416 0.928321 4.57908 0.928321 4.76886Z" fill="#B1E4E3"/>
<path d="M4.46606 1.23114C4.46606 1.41606 4.53906 1.60584 4.68018 1.74696L8.21789 5.28467C8.50499 5.57178 8.96728 5.57178 9.24952 5.28467C9.53662 4.99757 9.53662 4.53528 9.24952 4.25304L5.71177 0.715328C5.42467 0.428224 4.96238 0.428224 4.68014 0.715328C4.53903 0.856448 4.46606 1.04623 4.46606 1.23114Z" fill="#B1E4E3"/>
<script xmlns=""/></svg>